{"title":"alexis texas portable","uid":7135850,"size":414779291,"categoryP":"porn","categoryS":"movie_clips","magnet":"?xt=urn:btih:5ebf2a0f53c91757fa68bbf5049347b9613e32dc&amp;dn=alexis+texas+portable&amp;tr=udp%3A%2F%2Ftracker.openbittorrent.com%3A80&amp;tr=udp%3A%2F%2Fopen.demonii.com%3A1337&amp;tr=udp%3A%2F%2Ftracker.coppersurfer.tk%3A6969&amp;tr=udp%3A%2F%2Fexodus.desync.com%3A6969","seeders":0,"leechers":0,"uploader":"tigris1968","files":2,"time":1332853202,"description":"alexis texas portable\n\n41 ' 16 ''\n\n395 mb\n\n720 * 576\n\navi\n &lt;a href=&quot;\nhttp://bayimg.com/haNJnAadJ&quot; rel=&quot;nofollow&quot; target=&quot;_NEW&quot;&gt;\nhttp://bayimg.com/haNJnAadJ&lt;/a&gt;\n\n                                  info\nGeneral\nComplete name                    : C:Downloads 2alexis texas portablealexis texas portable.avi\nFormat                           : AVI\nFormat/Info                      : Audio Video Interleave\nFile size                        : 395 MiB\nDuration                         : 41mn 16s\nOverall bit rate                 : 1 339 Kbps\nWriting application              : MEncoder SVN-r30881(20100311-gcc4.3.3)\nWriting library                  : MPlayer\n\nVideo\nID                               : 0\nFormat                           : MPEG-4 Visual\nFormat profile                   : Advanced Simple@L5\nFormat settings, BVOP            : 2\nFormat settings, QPel            : No\nFormat settings, GMC             : No warppoints\nFormat settings, Matrix          : Default (H.263)\nCodec ID                         : XVID\nCodec ID/Hint                    : XviD\nDuration                         : 41mn 16s\nBit rate                         : 1 199 Kbps\nWidth                            : 720 pixels\nHeight                           : 576 pixels\nDisplay aspect ratio             : 5:4\nFrame rate                       : 25.000 fps\nStandard                         : PAL\nColor space                      : YUV\nChroma subsampling               : 4:2:0\nBit depth                        : 8 bits\nScan type                        : Progressive\nCompression mode                 : Lossy\nBits/(Pixel*Frame)               : 0.116\nStream size                      : 354 MiB (90%)\nWriting library                  : XviD 1.2.1 (UTC 2008-12-04)\n\nAudio\nID                               : 1\nFormat                           : MPEG Audio\nFormat version                   : Version 1\nFormat profile                   : Layer 3\nMode                             : Joint stereo\nMode extension                   : MS Stereo\nCodec ID                         : 55\nCodec ID/Hint                    : MP3\nDuration                         : 41mn 16s\nBit rate mode                    : Constant\nBit rate                         : 128 Kbps\nChannel(s)                       : 2 channels\nSampling rate                    : 44.1 KHz\nCompression mode                 : Lossy\nDelay relative to video          : 40ms\nStream size                      : 37.8 MiB (10%)\nAlignment                        : Aligned on interleaves\nInterleave, duration             : 26 ms (0.65 video frame)\nInterleave, preload duration     : 522 ms\n\nfab","torrent":{"xt":"urn:btih:5ebf2a0f53c91757fa68bbf5049347b9613e32dc","amp;dn":"alexis+texas+portable","amp;tr":["udp%3A%2F%2Ftracker.openbittorrent.com%3A80","udp%3A%2F%2Fopen.demonii.com%3A1337","udp%3A%2F%2Ftracker.coppersurfer.tk%3A6969","udp%3A%2F%2Fexodus.desync.com%3A6969"],"infoHash":"5ebf2a0f53c91757fa68bbf5049347b9613e32dc","infoHashBuffer":{"type":"Buffer","data":[94,191,42,15,83,201,23,87,250,104,187,245,4,147,71,185,97,62,50,220]},"announce":[],"urlList":[]}}